<svg xmlns="http://www.w3.org/2000/svg" viewBox="0 0 136.99 136.99"><defs><style>.cls-1{fill:#fff;}</style></defs><g id="Layer_2" data-name="Layer 2"><g id="Layer_1-2" data-name="Layer 1"><path class="cls-1" d="M95.92,41.53a8.44,8.44,0,0,0-11.85-.08l-.16.16L70.15,55.38,55.84,69.69,42,83.51l0,0A8.43,8.43,0,0,0,53.91,95.46l42-42A8.43,8.43,0,0,0,95.92,41.53Z"/><path class="cls-1" d="M90,26.18a21.32,21.32,0,0,1,15,6.11l.26.26a21.24,21.24,0,0,1,4.37,6.51c.09.18.16.37.23.55a21.31,21.31,0,0,1-4.73,23L69.66,97.93h60.69A68.49,68.49,0,0,0,14.66,26.18Z"/><path class="cls-1" d="M6.7,38.93c.13-.28.27-.54.4-.81C7,38.39,6.83,38.65,6.7,38.93Z"/><path class="cls-1" d="M122.25,110.81H48A21.32,21.32,0,0,1,33,104.7l-.23-.23a21.11,21.11,0,0,1-4.4-6.54c-.09-.18-.16-.37-.24-.55a21.36,21.36,0,0,1,4.74-23L68.24,39.06H6.64A68.51,68.51,0,0,0,130.31,98,68.5,68.5,0,0,1,122.25,110.81Z"/></g></g></svg>